<svg width="128" height="128" viewBox="0 0 128 128" xmlns="http://www.w3.org/2000/svg">
  <defs>
    <linearGradient id="bookGradient" x1="0%" y1="0%" x2="100%" y2="100%">
      <stop offset="0%" style="stop-color:#4285f4;stop-opacity:1" />
      <stop offset="100%" style="stop-color:#1a73e8;stop-opacity:1" />
    </linearGradient>
    <linearGradient id="pageGradient" x1="0%" y1="0%" x2="100%" y2="100%">
      <stop offset="0%" style="stop-color:#ffffff;stop-opacity:1" />
      <stop offset="100%" style="stop-color:#f8f9fa;stop-opacity:1" />
    </linearGradient>
    <linearGradient id="wandGradient" x1="0%" y1="0%" x2="100%" y2="100%">
      <stop offset="0%" style="stop-color:#ea4335;stop-opacity:1" />
      <stop offset="100%" style="stop-color:#fbbc04;stop-opacity:1" />
    </linearGradient>
  </defs>
  
  <!-- Book base -->
  <rect x="20" y="35" width="60" height="75" rx="8" fill="url(#bookGradient)" stroke="#1557b0" stroke-width="2"/>
  
  <!-- Book pages -->
  <rect x="25" y="30" width="50" height="70" rx="4" fill="url(#pageGradient)" stroke="#dadce0" stroke-width="1"/>
  
  <!-- Page lines -->
  <line x1="30" y1="45" x2="65" y2="45" stroke="#5f6368" stroke-width="1" opacity="0.3"/>
  <line x1="30" y1="55" x2="70" y2="55" stroke="#5f6368" stroke-width="1" opacity="0.3"/>
  <line x1="30" y1="65" x2="60" y2="65" stroke="#5f6368" stroke-width="1" opacity="0.3"/>
  <line x1="30" y1="75" x2="65" y2="75" stroke="#5f6368" stroke-width="1" opacity="0.3"/>
  <line x1="30" y1="85" x2="55" y2="85" stroke="#5f6368" stroke-width="1" opacity="0.3"/>
  
  <!-- Magic wand -->
  <line x1="75" y1="25" x2="95" y2="5" stroke="url(#wandGradient)" stroke-width="4" stroke-linecap="round"/>
  
  <!-- Wand star tip -->
  <polygon points="95,5 97,10 102,10 98,13 100,18 95,15 90,18 92,13 88,10 93,10" fill="#fbbc04" stroke="#ea4335" stroke-width="1"/>
  
  <!-- Magic sparkles -->
  <circle cx="85" cy="15" r="2" fill="#fbbc04" opacity="0.8"/>
  <circle cx="90" cy="20" r="1.5" fill="#34a853" opacity="0.8"/>
  <circle cx="82" cy="22" r="1" fill="#ea4335" opacity="0.8"/>
  <circle cx="95" cy="28" r="1.5" fill="#4285f4" opacity="0.8"/>
  <circle cx="88" cy="30" r="1" fill="#fbbc04" opacity="0.8"/>
  
  <!-- Additional sparkle effects -->
  <path d="M78,18 L80,20 L78,22 L76,20 Z" fill="#34a853" opacity="0.6"/>
  <path d="M92,12 L93,14 L92,16 L91,14 Z" fill="#ea4335" opacity="0.6"/>
  <path d="M97,32 L98,33 L97,34 L96,33 Z" fill="#4285f4" opacity="0.6"/>
</svg>